<svg xmlns="http://www.w3.org/2000/svg" width="100" height="100" viewBox="0 0 100 100">
  <title>Legion IV Scythia</title>
  <desc>
    Roman Legion IV Scythia unit for S&amp;T's Trajan.
  </desc>
  <defs>
    <!-- A marker to be used as an arrowhead -->
    <marker
      id="arrow"
      viewBox="0 0 10 10"
      refX="5"
      refY="5"
      markerWidth="3"
      markerHeight="3"
      orient="auto-start-reverse"
      fill="white"
    >
    <path d="M 0 0 L 10 5 L 0 10 z"/>
    </marker>

    <g id="shield_line">
      <path d="M38 32 L45 38 L44 46 L50 50" stroke="white" stroke-width="0.9" fill="none" marker-start="url(#arrow)"/>
    </g>
  </defs>

  <!-- Background rectangle -->
  <rect width="100" height="100" fill="lightcoral" stroke="black" stroke-width="2"/>

  <!-- Legion Name -->
  <text x="50" y="20" font-family="Cinzel" font-size="18" text-anchor="middle" fill="black">IV Sc</text>

  <!-- Unit Stats -->
  <text x="50" y="92" font-family="Cinzel" font-size="22" text-anchor="middle" fill="black">5-V-5</text>

  <!-- Unit Symbol -->
  <g id="unit-symbol">
    <rect x="35" y="28" width="30" height="44" fill="black" stroke="white" stroke-width="1" rx="6"/>
    <line x1="50" y1="31" x2="50" y2="67" stroke="white" stroke-width="0.9" marker-start="url(#arrow)" marker-end="url(#arrow)"/>
    <use href="#shield_line" x="0" y="0" transform="rotate(0 50 50)"/>
    <use href="#shield_line" x="0" y="0" transform="translate(100,100) scale(-1,-1)"/>
    <use href="#shield_line" x="0" y="0" transform="translate(100,0) scale(-1,1)"/>
    <use href="#shield_line" x="0" y="0" transform="translate(100,0) scale(-1,1) rotate(180 50 50)"/>
    <rect x="47" y="46" width="6" height="8" fill="black" stroke="white" stroke-width="0.3" rx="1"/>
    <circle cx="50" cy="50" r="2.2" fill="black" stroke="white" stroke-width="0.4"/>
  </g>

  <!-- Tactical Movement -->
  <text x="74" y="55" font-family="Cinzel" font-size="16" text-anchor="middle" fill="black">1</text>
</svg>