<svg viewBox="0 0 100 100" width="100" height="100" xmlns="http://www.w3.org/2000/svg" xmlns:xlink="http://www.w3.org/1999/xlink">
  <title>Army HQ Infantry</title>
  <desc>Union Army HQ Infantry Unit for Birth of a Legend</desc>

  <defs id="common">
    <rect
      id="background"
      width="100"
      height="100"
      fill="rgb(135,165,225)"
    />

    <g id="border" stroke="black" stroke-width="2">
      <line x1="0" y1="1" x2="100" y2="1" />
      <line x1="1" y1="1" x2="1" y2="100" />
      <line x1="0" y1="99" x2="100" y2="99" />
      <line x1="99" y1="1" x2="99" y2="100" />
    </g>

    <clipPath id="block">
      <use xlink:href="#background"/>
    </clipPath>
  </defs>

  <g id="unit" font-family="EB Garamond">
    <use xlink:href="#background" clip-path="url(#block)"/>
    <use xlink:href="#border" clip-path="url(#block)"/>

    <text x="50" y="20" font-size="15" text-anchor="middle">
      <tspan>SUPPLY</tspan>
      <tspan x="48" dy="14">TRAIN</tspan>
    </text>

    <g id="wagon_tent" stroke="rgb(70, 50, 25)">
      <polygon
        points="20,40 80,40 72,70 28,70"
        fill="white"
      />
      <line x1="31" y1="40" x2="38" y2="70"/>
      <line x1="43" y1="40" x2="45" y2="70"/>
      <line x1="57" y1="40" x2="55" y2="70"/>
      <line x1="69" y1="40" x2="62" y2="70"/>

      <polygon
        points="22,55 78,55 75,68 25,68"
        fill="none"
      />
      <line x1="23" y1="59" x2="78" y2="59"/>
      <line x1="30" y1="55" x2="30" y2="68"/>
      <line x1="40" y1="55" x2="40" y2="68"/>
      <line x1="50" y1="55" x2="50" y2="68"/>
      <line x1="60" y1="55" x2="60" y2="68"/>
      <line x1="70" y1="55" x2="70" y2="68"/>
    </g>

    <g id="wheels" stroke="rgb(70,50,25)" fill="rgb(70,50,25)">
      <g id="left_wheel" stroke-width="1.5">
        <circle cx="30" cy="74" r="10" fill="none" stroke-width="2"/>
        <circle cx="30" cy="74" r="2"/>
        <line x1="20" y1="74" x2="40" y2="74"/>
        <line x1="20" y1="74" x2="40" y2="74" transform="rotate(30,30,74)"/>
        <line x1="20" y1="74" x2="40" y2="74" transform="rotate(60,30,74)"/>
        <line x1="20" y1="74" x2="40" y2="74" transform="rotate(90,30,74)"/>
        <line x1="20" y1="74" x2="40" y2="74" transform="rotate(120,30,74)"/>
        <line x1="20" y1="74" x2="40" y2="74" transform="rotate(150,30,74)"/>
      </g>

      <g id="right_wheel" stroke-width="1.5">
        <circle cx="70" cy="74" r="10" fill="none" stroke-width="2"/>
        <circle cx="70" cy="74" r="2"/>
        <line x1="60" y1="74" x2="80" y2="74"/>
        <line x1="60" y1="74" x2="80" y2="74" transform="rotate(30,70,74)"/>
        <line x1="60" y1="74" x2="80" y2="74" transform="rotate(60,70,74)"/>
        <line x1="60" y1="74" x2="80" y2="74" transform="rotate(90,70,74)"/>
        <line x1="60" y1="74" x2="80" y2="74" transform="rotate(120,70,74)"/>
        <line x1="60" y1="74" x2="80" y2="74" transform="rotate(150,70,74)"/>
      </g>
    </g>
  </g>
</svg>