<svg width="100" height="100" xmlns="http://www.w3.org/2000/svg">
  <rect
    id="frenchBlockWithDiamonds"
    x="0"
    y="0"
    width="100%"
    height="100%"
    fill="#0072bb"
    stroke="blue" 
    stroke-width="9"
  />

  <g id="strength4">
    <polygon points="18,18 24,26 30,18 24,10" stroke="white"/>
    <polygon points="34,18 40,26 46,18 40,10" stroke="white"/>
    <polygon points="50,18 56,26 62,18 56,10" stroke="white"/>
    <polygon points="66,18 72,26 78,18 72,10" stroke="white"/>
  </g>

  <g id="strength3">
    <polygon points="92,40 82,34 72,40 82,46" stroke="white"/>
    <polygon points="92,56 82,50 72,56 82,62" stroke="white"/>
    <polygon points="92,72 82,66 72,72 82,78" stroke="white"/>
  </g>

  <g id="strength2">
    <polygon points="34,84 40,92 46,84 40,76" stroke="white"/>
    <polygon points="50,84 56,92 62,84 56,76" stroke="white"/>
  </g>

  <g id="strength1">
    <polygon points="30,52 20,46 10,52 20,58" stroke="white"/>
  </g>
</svg> 
