<svg width="100" height="100" xmlns="http://www.w3.org/2000/svg">
  <rect
    id="frenchBlockWithTriangles"
    x="0"
    y="0"
    width="100%"
    height="100%"
    fill="#0072bb"
    stroke="blue" 
    stroke-width="9"
  />

  <g id="strength4">
    <polygon points="29,8 23,20 35,20" class="triangle" />
    <polygon points="43,8 37,20 49,20" class="triangle" />
    <polygon points="57,8 51,20 63,20" class="triangle" />
    <polygon points="71,8 65,20 77,20" class="triangle" />
  </g>

  <g id="strength3">
    <polygon points="80,32 80,44 92,38" class="triangle" />
    <polygon points="80,46 80,58 92,52" class="triangle" />
    <polygon points="80,60 80,72 92,66" class="triangle" />
  </g>

  <g id="strength2">
    <polygon points="43,92 37,80 49,80" class="triangle" />
    <polygon points="57,92 51,80 63,80" class="triangle" />
  </g>

  <g id="strength1">
    <polygon points="8,50 20,44 20,56" class="triangle" />
  </g>
</svg> 
