<svg width="100" height="100" xmlns="http://www.w3.org/2000/svg">
  <g id="background">
    <rect
      id="frenchInfantry4"
      x="0"
      y="0"
      width="100%"
      height="100%"
      fill="rgb(51,133,205)"
      stroke="rgb(9,71,168)"
      stroke-width="9"
    />
  </g>

  <g id="border" stroke="black" stroke-width="2">
    <line x1="0" y1="1%" x2="100%" y2="1%" />
    <line x1="1%" y1="1%" x2="1%" y2="100%" />
    <line x1="0" y1="99%" x2="100%" y2="99%" />
    <line x1="99%" y1="1%" x2="99%" y2="100%" />
  </g>

  <g id="symbol" text-anchor="middle">
    <text x="50%" y="30" font-size="8" fill="white">IMPERIAL</text>
    <text x="50%" y="74" font-size="8" fill="white">GUARD</text>
    <rect x="28" y="32" width="44" height="34" fill="white" stroke="black"/>
    <line x1="28" y1="32" x2="72" y2="66" stroke="black" />
    <line x1="28" y1="66" x2="72" y2="32" stroke="black" />
  </g>

  <g id="attributes" text-anchor="middle" dominant-baseline="central">
    <g id="firepower" font-size="10">
      <rect x="78" y="7" rx="3" ry="3" width="16" height="14" fill="orange" stroke="black"/>
      <text x="86" y="14">D4</text>
    </g>
  </g>

  <g id="pips" stroke="black" fill="white">
    <g id="strength4">
      <circle id="topleftouter" cx="32" cy="12" r="5"  />
      <circle id="topleftinner" cx="44" cy="12" r="5" />
      <circle id="toprightinner" cx="56" cy="12" r="5" />
      <circle id="toprightouter" cx="68" cy="12" r="5" />
    </g>

    <g id="strength3">
      <circle id="righttop" cx="88" cy="38" r="5" />
      <circle id="rightcenter" cx="88" cy="50" r="5" />
      <circle id="rightbottom" cx="88" cy="62" r="5" />
    </g>

    <g id="strength2">
      <circle id="bottomleft" cx="44" cy="88" r="5" />
      <circle id="bottomright" cx="56" cy="88" r="5" />
    </g>

    <g id="strength1">
      <circle id="leftcenter" cx="12" cy="50" r="5" />
    </g>
  </g>
</svg> 
