<svg
  width="8in"
  height="7in"
  viewBox="0 0 800 700"
  xmlns="http://www.w3.org/2000/svg"
>
  <defs>
    <linearGradient id="paper" x1="0" y1="0" x2="0" y2="1">
      <stop offset="0%" stop-color="#f8f2e6" />
      <stop offset="100%" stop-color="#efe5d4" />
    </linearGradient>
    <linearGradient id="unionBlue" x1="0" y1="0" x2="0" y2="1">
      <stop offset="0%" stop-color="#7ea9d8" />
      <stop offset="100%" stop-color="#5f89b9" />
    </linearGradient>
    <linearGradient id="confederateGray" x1="0" y1="0" x2="0" y2="1">
      <stop offset="0%" stop-color="#c9c2b8" />
      <stop offset="100%" stop-color="#a59c93" />
    </linearGradient>
  </defs>

  <rect width="800" height="700" fill="url(#paper)" />
  <text
    x="50"
    y="58"
    font-family="Georgia, 'Times New Roman', serif"
    font-size="34"
    font-weight="700"
    fill="#1c1c1c"
  >Shenandoah Counter Key</text>

  <g transform="translate(335, 120)">
    <rect x="0" y="0" width="220" height="220" rx="10" fill="url(#unionBlue)" stroke="#111111" stroke-width="6" />
    <rect x="12" y="12" width="196" height="196" rx="4" fill="none" stroke="#e9f2ff" stroke-width="3" />

    <g transform="translate(154, 18)">
      <rect x="0" y="0" width="40" height="26" fill="#ffffff" stroke="#111111" stroke-width="2" />
      <rect x="1" y="1" width="38" height="2" fill="#b22234" />
      <rect x="1" y="5" width="38" height="2" fill="#b22234" />
      <rect x="1" y="9" width="38" height="2" fill="#b22234" />
      <rect x="1" y="13" width="38" height="2" fill="#b22234" />
      <rect x="1" y="17" width="38" height="2" fill="#b22234" />
      <rect x="1" y="21" width="38" height="2" fill="#b22234" />
      <rect x="1" y="1" width="16" height="12" fill="#3c3b6e" />
      <g fill="#ffffff">
        <circle cx="4" cy="4" r="0.8" />
        <circle cx="8.5" cy="4" r="0.8" />
        <circle cx="13" cy="4" r="0.8" />
        <circle cx="6.25" cy="7" r="0.8" />
        <circle cx="10.75" cy="7" r="0.8" />
        <circle cx="4" cy="10" r="0.8" />
        <circle cx="8.5" cy="10" r="0.8" />
        <circle cx="13" cy="10" r="0.8" />
      </g>
    </g>

    <text
      x="18"
      y="58"
      font-family="Georgia, 'Times New Roman', serif"
      font-size="56"
      font-weight="700"
      fill="#111111"
    >5</text>

    <rect x="64" y="72" width="92" height="75" fill="none" stroke="#111111" stroke-width="6" />

    <text
      x="44"
      y="109"
      text-anchor="middle"
      dominant-baseline="central"
      font-family="Georgia, 'Times New Roman', serif"
      font-size="26"
      font-weight="700"
      fill="#ffffff"
    >C</text>

    <g stroke="#111111" stroke-width="8" stroke-linecap="round">
      <line x1="69" y1="77" x2="151" y2="142" />
      <line x1="151" y1="77" x2="69" y2="142" />
    </g>

    <text
      x="176"
      y="109"
      text-anchor="middle"
      dominant-baseline="middle"
      font-family="Georgia, 'Times New Roman', serif"
      font-size="34"
      font-weight="700"
      fill="#ffffff"
    >1</text>

    <rect x="162" y="164" width="32" height="32" rx="3" fill="#4d8f45" stroke="#111111" stroke-width="3" />

    <text
      x="178"
      y="180"
      text-anchor="middle"
      dominant-baseline="central"
      font-family="Georgia, 'Times New Roman', serif"
      font-size="22"
      font-weight="700"
      fill="#ffffff"
    >6</text>
  </g>

  <g stroke="#3a3127" stroke-width="3" fill="none">
    <line x1="353" y1="170" x2="270" y2="145" />
    <line x1="365" y1="229" x2="270" y2="229" />
    <line x1="534" y1="146" x2="600" y2="166" />
    <line x1="445" y1="288" x2="470" y2="356" />
  </g>

  <g fill="#1f1a14">
    <text x="133" y="138" font-family="Georgia, 'Times New Roman', serif" font-size="24" font-weight="700">Combat Factor</text>
    <text x="125" y="216" font-family="Georgia, 'Times New Roman', serif" font-size="24" font-weight="700">Formation</text>
    <text x="125" y="244" font-family="Georgia, 'Times New Roman', serif" font-size="20">
      <tspan text-decoration="underline">C</tspan><tspan>olumn / </tspan><tspan text-decoration="underline">B</tspan><tspan>attle</tspan>
    </text>
    <text x="470" y="388" text-anchor="middle" font-family="Georgia, 'Times New Roman', serif" font-size="24" font-weight="700">Unit Type</text>
    <text x="470" y="414" text-anchor="middle" font-family="Georgia, 'Times New Roman', serif" font-size="18">(Infantry)</text>
    <text x="740" y="178" text-anchor="end" font-family="Georgia, 'Times New Roman', serif" font-size="24" font-weight="700">Union Unit</text>
    <text x="590" y="512" text-anchor="end" font-family="Georgia, 'Times New Roman', serif" font-size="24" font-weight="700">Stacking Factor</text>
    <text x="590" y="536" text-anchor="end" font-family="Georgia, 'Times New Roman', serif" font-size="18">(per Combat Factor)</text>
    <text x="725" y="636" text-anchor="end" font-family="Georgia, 'Times New Roman', serif" font-size="24" font-weight="700">Movement Allowance Factor</text>
  </g>

  <g transform="translate(90, 405)">
    <rect x="0" y="0" width="220" height="220" rx="10" fill="url(#confederateGray)" stroke="#111111" stroke-width="6" />
    <rect x="12" y="12" width="196" height="196" rx="4" fill="none" stroke="#eee7dd" stroke-width="3" />

    <g transform="translate(154, 18)">
      <rect x="0" y="0" width="40" height="26" fill="#b22222" stroke="#111111" stroke-width="2" />
      <g stroke="#f4f1ea" stroke-width="5.8" stroke-linecap="square">
        <line x1="2.7" y1="2.7" x2="37.3" y2="23.3" />
        <line x1="37.3" y1="2.7" x2="2.7" y2="23.3" />
      </g>
      <g stroke="#2b4f8f" stroke-width="2.9" stroke-linecap="square">
        <line x1="2.7" y1="2.7" x2="37.3" y2="23.3" />
        <line x1="37.3" y1="2.7" x2="2.7" y2="23.3" />
      </g>
      <g fill="#f4f1ea">
        <circle cx="5.3" cy="4.1" r="1" />
        <circle cx="13.6" cy="9.5" r="1" />
        <circle cx="21.8" cy="14.5" r="1" />
        <circle cx="30.0" cy="19.3" r="1" />
        <circle cx="34.7" cy="4.1" r="1" />
        <circle cx="26.4" cy="9.5" r="1" />
        <circle cx="18.2" cy="14.5" r="1" />
        <circle cx="9.8" cy="19.3" r="1" />
      </g>
    </g>

    <text
      x="18"
      y="58"
      font-family="Georgia, 'Times New Roman', serif"
      font-size="56"
      font-weight="700"
      fill="#9f1d20"
    >3</text>

    <rect x="48" y="86" width="123" height="48" fill="none" stroke="#9f1d20" stroke-width="6" />

    <text
      x="28"
      y="110"
      text-anchor="middle"
      dominant-baseline="central"
      font-family="Georgia, 'Times New Roman', serif"
      font-size="26"
      font-weight="700"
      fill="#9f1d20"
    >B</text>

    <g stroke="#9f1d20" stroke-width="8" stroke-linecap="round">
      <line x1="53" y1="91" x2="166" y2="129" />
      <line x1="166" y1="91" x2="53" y2="129" />
    </g>

    <text
      x="186"
      y="109"
      text-anchor="middle"
      dominant-baseline="middle"
      font-family="Georgia, 'Times New Roman', serif"
      font-size="34"
      font-weight="700"
      fill="#9f1d20"
    >1</text>

    <rect x="162" y="164" width="32" height="32" rx="3" fill="#4d8f45" stroke="#111111" stroke-width="3" />

    <text
      x="178"
      y="180"
      text-anchor="middle"
      dominant-baseline="central"
      font-family="Georgia, 'Times New Roman', serif"
      font-size="22"
      font-weight="700"
      fill="#ffffff"
    >6</text>
  </g>

  <g stroke="#3a3127" stroke-width="3" fill="none">
    <line x1="284" y1="514" x2="388" y2="510" />
    <line x1="289" y1="599" x2="365" y2="624" />
  </g>

</svg>
