<svg
  width="0.5in"
  height="0.5in"
  viewBox="0 0 100 100"
  xmlns="http://www.w3.org/2000/svg"
>
  <defs>
    <linearGradient id="devastationRed" x1="0" y1="0" x2="0" y2="1">
      <stop offset="0%" stop-color="#cc6a5b" />
      <stop offset="100%" stop-color="#8e2f28" />
    </linearGradient>
  </defs>

  <rect x="1.5" y="1.5" width="97" height="97" rx="4" fill="url(#devastationRed)" stroke="#111111" stroke-width="3" />

  <g stroke-linecap="round" stroke-linejoin="round">
    <path
      d="M26 74 C34 66, 38 58, 38 49 C38 42, 35 35, 32 30 C40 34, 46 42, 47 50 C49 43, 54 36, 61 31 C60 39, 63 45, 67 51 C71 46, 76 41, 82 38 C80 47, 80 57, 74 64 C68 71, 58 75, 48 75 C39 76, 31 76, 26 74 Z"
      fill="#f5c46a"
      stroke="#f4e7d2"
      stroke-width="2.5"
    />
    <path
      d="M42 71 C46 66, 48 61, 48 56 C48 52, 46 47, 44 43 C49 46, 53 51, 54 56 C56 52, 59 47, 64 44 C63 49, 65 53, 68 57 C67 63, 63 68, 58 70 C53 72, 47 72, 42 71 Z"
      fill="#f08a3c"
      stroke="#f08a3c"
      stroke-width="2"
    />
    <path
      d="M52 67 C54 64, 55 61, 55 58 C55 55, 54 52, 52 49 C56 51, 59 55, 59 59 C60 57, 62 54, 65 52 C65 56, 66 59, 65 62 C64 65, 61 67, 58 68 C56 68, 54 68, 52 67 Z"
      fill="#7f1d1d"
      stroke="#7f1d1d"
      stroke-width="1.5"
    />
    <path d="M24 79 C35 75, 45 81, 55 77 C64 73, 74 79, 82 76" fill="none" stroke="#2b1714" stroke-width="4" />
  </g>
</svg>
