<svg
  width="0.5in"
  height="0.5in"
  viewBox="0 0 100 100"
  xmlns="http://www.w3.org/2000/svg"
>
  <defs>
    <linearGradient id="devastationRed" x1="0" y1="0" x2="0" y2="1">
      <stop offset="0%" stop-color="#cc6a5b" />
      <stop offset="100%" stop-color="#8e2f28" />
    </linearGradient>
  </defs>

  <rect x="1.5" y="1.5" width="97" height="97" rx="4" fill="url(#devastationRed)" stroke="#111111" stroke-width="3" />

  <g stroke-linecap="round" stroke-linejoin="round">
    <path
      d="M28 78 C33 69, 37 60, 39 49 C40 40, 39 31, 37 22 C43 29, 47 39, 49 47 C51 37, 56 27, 62 19 C61 31, 63 40, 66 48 C69 40, 74 33, 80 28 C79 41, 78 54, 74 64 C70 73, 61 79, 50 80 C40 80, 32 79, 28 78 Z"
      fill="#f5c46a"
      stroke="#f4e7d2"
      stroke-width="2.5"
    />
    <path
      d="M40 75 C44 68, 47 60, 49 52 C50 45, 49 37, 47 30 C51 36, 54 43, 55 49 C57 42, 60 35, 64 29 C64 38, 65 46, 67 53 C69 59, 67 66, 63 71 C59 75, 54 77, 49 77 C45 77, 42 76, 40 75 Z"
      fill="#f08a3c"
      stroke="#f08a3c"
      stroke-width="2"
    />
    <path
      d="M47 72 C50 67, 52 61, 53 54 C54 48, 53 42, 52 37 C55 42, 57 47, 58 52 C60 46, 62 41, 65 37 C65 45, 66 52, 65 58 C64 65, 61 70, 57 72 C54 73, 50 73, 47 72 Z"
      fill="#7f1d1d"
      stroke="#7f1d1d"
      stroke-width="1.5"
    />
    <path d="M24 79 C35 75, 45 81, 55 77 C64 73, 74 79, 82 76" fill="none" stroke="#2b1714" stroke-width="4" />
  </g>
</svg>
