<svg
  width="8in"
  height="4.5in"
  viewBox="0 0 800 450"
  xmlns="http://www.w3.org/2000/svg"
>
  <defs>
    <linearGradient id="paper" x1="0" y1="0" x2="0" y2="1">
      <stop offset="0%" stop-color="#f8f2e6" />
      <stop offset="100%" stop-color="#efe5d4" />
    </linearGradient>
    <linearGradient id="unionBlue" x1="0" y1="0" x2="0" y2="1">
      <stop offset="0%" stop-color="#7ea9d8" />
      <stop offset="100%" stop-color="#5f89b9" />
    </linearGradient>
  </defs>

  <rect width="800" height="450" fill="url(#paper)" />

  <text
    x="50"
    y="58"
    font-family="Georgia, 'Times New Roman', serif"
    font-size="34"
    font-weight="700"
    fill="#1c1c1c"
  >Shenandoah Counter Key</text>

  <g transform="translate(250, 120)">
    <rect x="0" y="0" width="220" height="220" rx="10" fill="url(#unionBlue)" stroke="#111111" stroke-width="6" />
    <rect x="12" y="12" width="196" height="196" rx="4" fill="none" stroke="#e9f2ff" stroke-width="3" />

    <g transform="translate(154, 18)">
      <rect x="0" y="0" width="40" height="26" fill="#ffffff" stroke="#111111" stroke-width="2" />
      <rect x="1" y="1" width="38" height="2" fill="#b22234" />
      <rect x="1" y="5" width="38" height="2" fill="#b22234" />
      <rect x="1" y="9" width="38" height="2" fill="#b22234" />
      <rect x="1" y="13" width="38" height="2" fill="#b22234" />
      <rect x="1" y="17" width="38" height="2" fill="#b22234" />
      <rect x="1" y="21" width="38" height="2" fill="#b22234" />
      <rect x="1" y="1" width="16" height="12" fill="#3c3b6e" />
      <g fill="#ffffff">
        <circle cx="4" cy="4" r="0.8" />
        <circle cx="8.5" cy="4" r="0.8" />
        <circle cx="13" cy="4" r="0.8" />
        <circle cx="6.25" cy="7" r="0.8" />
        <circle cx="10.75" cy="7" r="0.8" />
        <circle cx="4" cy="10" r="0.8" />
        <circle cx="8.5" cy="10" r="0.8" />
        <circle cx="13" cy="10" r="0.8" />
      </g>
    </g>

    <text
      x="18"
      y="58"
      font-family="Georgia, 'Times New Roman', serif"
      font-size="56"
      font-weight="700"
      fill="#111111"
    >1</text>

    <rect x="64" y="72" width="92" height="75" fill="none" stroke="#111111" stroke-width="6" />

    <text
      x="44"
      y="109"
      text-anchor="middle"
      dominant-baseline="central"
      font-family="Georgia, 'Times New Roman', serif"
      font-size="26"
      font-weight="700"
      fill="#ffffff"
    >C</text>

    <g stroke="#111111" stroke-width="8" stroke-linecap="round">
      <line x1="69" y1="77" x2="151" y2="142" />
      <line x1="151" y1="77" x2="69" y2="142" />
    </g>

    <text
      x="176"
      y="109"
      text-anchor="middle"
      dominant-baseline="middle"
      font-family="Georgia, 'Times New Roman', serif"
      font-size="34"
      font-weight="700"
      fill="#ffffff"
    >1</text>

    <rect x="162" y="164" width="32" height="32" rx="3" fill="#4d8f45" stroke="#111111" stroke-width="3" />

    <text
      x="178"
      y="180"
      text-anchor="middle"
      dominant-baseline="central"
      font-family="Georgia, 'Times New Roman', serif"
      font-size="22"
      font-weight="700"
      fill="#ffffff"
    >6</text>
  </g>

  <g stroke="#3a3127" stroke-width="3" fill="none">
    <line x1="268" y1="170" x2="185" y2="145" />
    <line x1="280" y1="229" x2="185" y2="229" />
    <line x1="448" y1="146" x2="600" y2="108" />
    <line x1="438" y1="224" x2="541" y2="216" />
    <line x1="452" y1="318" x2="596" y2="372" />
  </g>

  <g fill="#1f1a14">
    <text x="48" y="138" font-family="Georgia, 'Times New Roman', serif" font-size="24" font-weight="700">Combat Factor</text>
    <text x="40" y="216" font-family="Georgia, 'Times New Roman', serif" font-size="24" font-weight="700">Formation</text>
    <text x="40" y="242" font-family="Georgia, 'Times New Roman', serif" font-size="16">Column / Battle</text>
    <text x="740" y="112" text-anchor="end" font-family="Georgia, 'Times New Roman', serif" font-size="24" font-weight="700">Union Unit</text>
    <text x="740" y="222" text-anchor="end" font-family="Georgia, 'Times New Roman', serif" font-size="24" font-weight="700">Stacking Factor</text>
    <text x="740" y="392" text-anchor="end" font-family="Georgia, 'Times New Roman', serif" font-size="24" font-weight="700">Movement Allowance Factor</text>
  </g>
</svg>
