<svg
  width="0.5in"
  height="0.5in"
  viewBox="0 0 100 100"
  xmlns="http://www.w3.org/2000/svg"
>
  <defs>
    <linearGradient id="unionBlue" x1="0" y1="0" x2="0" y2="1">
      <stop offset="0%" stop-color="#7ea9d8" />
      <stop offset="100%" stop-color="#5f89b9" />
    </linearGradient>
  </defs>

  <rect x="1.5" y="1.5" width="97" height="97" rx="4" fill="url(#unionBlue)" stroke="#111111" stroke-width="3" />

  <g transform="translate(3, 0) scale(0.83)">
    <g stroke="rgb(70, 50, 25)">
      <polygon points="20,40 80,40 72,70 28,70" fill="white" />
      <line x1="31" y1="40" x2="38" y2="70" />
      <line x1="43" y1="40" x2="45" y2="70" />
      <line x1="57" y1="40" x2="55" y2="70" />
      <line x1="69" y1="40" x2="62" y2="70" />
      <polygon points="22,55 78,55 75,68 25,68" fill="none" />
      <line x1="23" y1="59" x2="78" y2="59" />
      <line x1="30" y1="55" x2="30" y2="68" />
      <line x1="40" y1="55" x2="40" y2="68" />
      <line x1="50" y1="55" x2="50" y2="68" />
      <line x1="60" y1="55" x2="60" y2="68" />
      <line x1="70" y1="55" x2="70" y2="68" />
    </g>
    <g stroke="rgb(70,50,25)" fill="rgb(70,50,25)">
      <g stroke-width="1.5">
        <circle cx="30" cy="74" r="10" fill="none" stroke-width="2"/>
        <circle cx="30" cy="74" r="2"/>
        <line x1="20" y1="74" x2="40" y2="74"/>
        <line x1="20" y1="74" x2="40" y2="74" transform="rotate(30,30,74)"/>
        <line x1="20" y1="74" x2="40" y2="74" transform="rotate(60,30,74)"/>
        <line x1="20" y1="74" x2="40" y2="74" transform="rotate(90,30,74)"/>
        <line x1="20" y1="74" x2="40" y2="74" transform="rotate(120,30,74)"/>
        <line x1="20" y1="74" x2="40" y2="74" transform="rotate(150,30,74)"/>
        <circle cx="30" cy="74" r="2" fill="#f7fbff"/>
      </g>
      <g stroke-width="1.5">
        <circle cx="70" cy="74" r="10" fill="none" stroke-width="2"/>
        <circle cx="70" cy="74" r="2"/>
        <line x1="60" y1="74" x2="80" y2="74"/>
        <line x1="60" y1="74" x2="80" y2="74" transform="rotate(30,70,74)"/>
        <line x1="60" y1="74" x2="80" y2="74" transform="rotate(60,70,74)"/>
        <line x1="60" y1="74" x2="80" y2="74" transform="rotate(90,70,74)"/>
        <line x1="60" y1="74" x2="80" y2="74" transform="rotate(120,70,74)"/>
        <line x1="60" y1="74" x2="80" y2="74" transform="rotate(150,70,74)"/>
        <circle cx="70" cy="74" r="2" fill="#f7fbff"/>
      </g>
    </g>
  </g>

  <foreignObject x="71" y="67" width="20" height="26">
    <div
      xmlns="http://www.w3.org/1999/xhtml"
      style="width:20px;height:26px;display:flex;align-items:flex-start;justify-content:center;"
    >
      <span
        id="movement_allowance_factor"
        style="display:inline-block;font-family:Georgia, 'Times New Roman', serif;font-size:20px;font-weight:600;line-height:1;color:#f7fbff;border-bottom:1.5px solid #f7fbff;padding-bottom:2px;"
      >4</span>
    </div>
  </foreignObject>
</svg>
