<svg xmlns="http://www.w3.org/2000/svg" width="6in" height="4.2in" viewBox="0 0 600 420">
  <defs>
    <style>
      .banner { font: 700 11px Georgia, "Times New Roman", serif; fill: #111111; }
      .stat { font: 700 12px Georgia, "Times New Roman", serif; fill: #111111; }
      .strength { font: 700 15px Georgia, "Times New Roman", serif; fill: #111111; }
      .label { font: 700 18px Georgia, "Times New Roman", serif; fill: #111111; }
      .leader { fill: none; stroke: #111111; stroke-width: 1.8; }
    </style>
  </defs>

  <rect width="600" height="420" fill="#f8f5ec"/>

  <g transform="translate(185,55) scale(1.7)">
    <rect x="1.5" y="1.5" width="97" height="97" fill="#d2cdc3" stroke="#111111" stroke-width="1.5"/>
    <rect x="1.5" y="1.5" width="97" height="24" fill="#c83b35" stroke="#111111" stroke-width="1.5"/>

    <text x="50" y="17.5" text-anchor="middle" class="banner">Early</text>

    <rect x="18" y="39" width="56" height="30" fill="#d2cdc3" stroke="#111111" stroke-width="1.5"/>
    <line x1="18" y1="39" x2="74" y2="69" stroke="#111111" stroke-width="1.5"/>
    <line x1="18" y1="69" x2="74" y2="39" stroke="#111111" stroke-width="1.5"/>

    <text x="84" y="60" text-anchor="middle" class="stat">9</text>

    <text x="12" y="90" text-anchor="start" class="strength">2</text>
    <circle cx="26" cy="85.5" r="2.2" fill="#111111"/>
    <text x="31" y="90" text-anchor="start" class="strength">2</text>
    <text x="88" y="90" text-anchor="end" class="stat">+1</text>
  </g>

  <g>
    <line x1="320" y1="72" x2="392" y2="58" class="leader"/>
    <text x="404" y="64" class="label">Subordination</text>
    <text x="404" y="85" class="label">color</text>

    <line x1="238" y1="82" x2="146" y2="88" class="leader"/>
    <text x="76" y="92" class="label">Name</text>

    <line x1="338" y1="152" x2="420" y2="136" class="leader"/>
    <text x="432" y="136" class="label">Seniority</text>
    <text x="432" y="157" class="label">Rating</text>

    <line x1="199" y1="202" x2="148" y2="246" class="leader"/>
    <text x="48" y="258" class="label">Command</text>
    <text x="48" y="279" class="label">Rating</text>

    <line x1="252" y1="212" x2="274" y2="252" class="leader"/>
    <text x="237" y="272" class="label">Initiative</text>
    <text x="255" y="293" class="label">Rating</text>

    <line x1="344" y1="204" x2="404" y2="222" class="leader"/>
    <text x="416" y="228" class="label">Combat Bonus</text>
    <text x="416" y="249" class="label">Rating</text>
  </g>
</svg>
