<svg width="100" height="100" viewBox="0 0 100 100" xmlns="http://www.w3.org/2000/svg">
  <title>Confederate Leader Jackson</title>
  <desc>Confederate leader counter for Shenandoah: Battleline</desc>
  <defs>
    <linearGradient id="confederateGray" x1="0" y1="0" x2="0" y2="1">
      <stop offset="0%" stop-color="#c9c2b8"/>
      <stop offset="100%" stop-color="#a59c93"/>
    </linearGradient>
    <polygon id="starSmall" points="0,-9.4 2.8,-2.9 9.4,-2.9 3.9,1.25 5.9,8.2 0,4.3 -5.9,8.2 -3.9,1.25 -9.4,-2.9 -2.8,-2.9"/>
    <polygon id="starLarge" points="0,-13.6 4,-4.1 13.6,-4.1 5.6,1.8 8.7,12 0,6.4 -8.7,12 -5.6,1.8 -13.6,-4.1 -4,-4.1"/>
  </defs>
  <rect x="1" y="1" width="98" height="98" rx="4" fill="url(#confederateGray)" stroke="#111111" stroke-width="1.5"/>
  <text x="8" y="17" font-family="Georgia, 'Times New Roman', serif" font-size="12" fill="#9f1d20" font-weight="700">Jackson</text>
  <text x="92" y="17" text-anchor="end" font-family="Georgia, 'Times New Roman', serif" font-size="15" fill="#9f1d20" font-weight="700">4</text>
  <g fill="#9f1d20">
    <use href="#starSmall" transform="translate(29 45)"/>
    <use href="#starLarge" transform="translate(50 41.5)"/>
    <use href="#starSmall" transform="translate(71 45)"/>
  </g>
  <text x="50" y="87" text-anchor="middle" font-family="Georgia, 'Times New Roman', serif" font-size="28" fill="#9f1d20" font-weight="700" text-decoration="underline">12</text>
</svg>
