<svg width="0.5in" height="0.5in" viewBox="0 0 100 100" xmlns="http://www.w3.org/2000/svg">
  <defs><linearGradient id="confederateGray" x1="0" y1="0" x2="0" y2="1"><stop offset="0%" stop-color="#c9c2b8" /><stop offset="100%" stop-color="#a59c93" /></linearGradient></defs>
  <rect x="1.5" y="1.5" width="97" height="97" rx="4" fill="url(#confederateGray)" stroke="#111111" stroke-width="3" />
  <rect x="7" y="7" width="86" height="86" rx="2" fill="none" stroke="#eee7dd" stroke-width="1.5" />
  <g transform="translate(70, 9)"><rect x="0" y="0" width="18" height="18" fill="#b22222" stroke="#111111" stroke-width="1" /><g stroke="#f4f1ea" stroke-width="2.6" stroke-linecap="square"><line x1="2" y1="2" x2="16" y2="16" /><line x1="16" y1="2" x2="2" y2="16" /></g><g stroke="#2b4f8f" stroke-width="1.3" stroke-linecap="square"><line x1="2" y1="2" x2="16" y2="16" /><line x1="16" y1="2" x2="2" y2="16" /></g><g fill="#f4f1ea"><circle cx="4.1" cy="4.1" r="0.55" /><circle cx="7.1" cy="7.1" r="0.55" /><circle cx="10.0" cy="10.0" r="0.55" /><circle cx="13.0" cy="13.0" r="0.55" /><circle cx="13.9" cy="4.1" r="0.55" /><circle cx="10.9" cy="7.1" r="0.55" /><circle cx="8.0" cy="10.0" r="0.55" /><circle cx="5.0" cy="13.0" r="0.55" /></g></g>
  <text x="10" y="27" font-family="Georgia, 'Times New Roman', serif" font-size="28" font-weight="700" fill="#9f1d20">1</text>
  <rect x="29" y="33" width="42" height="34" fill="none" stroke="#9f1d20" stroke-width="3" />
  <text x="20" y="50" text-anchor="middle" dominant-baseline="central" font-family="Georgia, 'Times New Roman', serif" font-size="12" font-weight="700" fill="#9f1d20">C</text>
  <circle cx="50" cy="50" r="7" fill="#9f1d20" />
  <text x="80" y="50" text-anchor="middle" dominant-baseline="middle" font-family="Georgia, 'Times New Roman', serif" font-size="12" font-weight="700" fill="#9f1d20">3</text>
  <rect x="74" y="74" width="14" height="14" rx="1.5" fill="#4d8f45" stroke="#111111" stroke-width="1.5" />
  <text x="81" y="81" text-anchor="middle" dominant-baseline="central" font-family="Georgia, 'Times New Roman', serif" font-size="10" font-weight="700" fill="#ffffff">8</text>
</svg>
