<svg width="100" height="100" xmlns="http://www.w3.org/2000/svg">
  <g id="symbol" text-anchor="middle" fill="none">
    <text x="50%" y="30" font-size="8" fill="white">HABERT</text>
    <polygon points="33,50 42,36 58,36 67,50 58,64 42,64" fill="white" stroke="black" stroke-width="1" />
    <polygon points="35.7,50 43.3,38.5 57,38.5 64.3,50 56.7,61.5 43.3,61.5" fill="white" stroke="black" stroke-width="1" />
    <line x1="42" y1="64" x2="43.3" y2="61.5" stroke="black"/>
    <line x1="33" y1="50" x2="35.7" y2="50" stroke="black"/>
    <line x1="42" y1="36" x2="43.3" y2="38.5" stroke="black"/>
    <line x1="42" y1="36" x2="43.3" y2="38.5" stroke="black"/>
    <line x1="58" y1="36" x2="57" y2="38.5" stroke="black"/>
    <line x1="67" y1="50" x2="64.3" y2="50" stroke="black"/>
    <line x1="58" y1="64" x2="57" y2="61.5" stroke="black"/>
  </g>

  <g id="attributes" text-anchor="middle" font-size="12">
    <g id="initiative">
      <circle cx="14" cy="14" r="8" fill="white" />
      <text x="14" y="18">A</text>
    </g>
    <g id="firepower">
      <circle cx="86" cy="14" r="8" fill="white" />
      <text x="86" y="18">6</text>
    </g>
    <g id="movement">
      <circle cx="86" cy="86" r="8" fill="white" />
      <text x="86" y="90">0</text>
    </g>
    <g id="arrival">
      <circle cx="14" cy="86" r="8" fill="white" />
      <text x="14" y="90" font-size="10">T2</text>
    </g>
  </g>
</svg> 
