<?xml version="1.0" encoding="UTF-8"?>
<svg xmlns="http://www.w3.org/2000/svg" viewBox="0 0 300 300" role="img" aria-labelledby="title desc">
  <title id="title">American leader: ( 6 )</title>
  <desc id="desc">Vector recreation of the American leader: ( 6 ) counter from Washington's Crossing.</desc>
  <defs>
    <pattern id="blueTexture" width="18" height="18" patternUnits="userSpaceOnUse">
      <rect width="18" height="18" fill="#083d4c"/>
      <path d="M0 3H18 M0 12H18" stroke="#b7d0c6" stroke-opacity=".11" stroke-width="1"/>
      <path d="M5 0V18 M14 0V18" stroke="#d3e0d2" stroke-opacity=".08" stroke-width="1"/>
    </pattern>
        <pattern id="americanLeaderTexture" width="42" height="42" patternUnits="userSpaceOnUse">
          <rect width="42" height="42" fill="#083d4c"/>
          <text x="10" y="15" fill="#b7d0c6" fill-opacity=".11" font-family="Georgia, serif" font-size="13" text-anchor="middle">★</text>
          <text x="31" y="35" fill="#b7d0c6" fill-opacity=".08" font-family="Georgia, serif" font-size="13" text-anchor="middle">★</text>
          <text x="40" y="8" fill="#b7d0c6" fill-opacity=".05" font-family="Georgia, serif" font-size="9" text-anchor="middle">★</text>
        </pattern>
    <pattern id="redTexture" width="24" height="24" patternUnits="userSpaceOnUse">
      <rect width="24" height="24" fill="#d94234"/>
      <path d="M0 0L24 24M24 0L0 24" stroke="#ffc0a4" stroke-opacity=".14" stroke-width="2"/>
      <path d="M6 0V24M18 0V24" stroke="#831e22" stroke-opacity=".14" stroke-width="2"/>
    </pattern>
    <pattern id="blackTexture" width="12" height="12" patternUnits="userSpaceOnUse" patternTransform="rotate(35)">
      <rect width="12" height="12" fill="#101214"/>
      <path d="M0 2H12" stroke="#6a6a6a" stroke-opacity=".35" stroke-width="1"/>
    </pattern>
    <filter id="shadow" x="-15%" y="-15%" width="130%" height="130%">
      <feDropShadow dx="0" dy="2" stdDeviation="2" flood-opacity=".38"/>
    </filter>
  </defs>
  <rect width="300" height="300" fill="url(#americanLeaderTexture)"/>
<text x="43" y="78" fill="#fff" font-family="Georgia, serif" font-size="64" text-anchor="middle">1</text><text x="150" y="76" fill="#fff" font-family="Georgia, serif" font-size="52" text-anchor="middle">★</text><text x="257" y="78" fill="#fff" font-family="Georgia, serif" font-size="64" text-anchor="middle">1</text>
<rect y="112" width="300" height="62" fill="#c9283e"/>
<text x="150" y="156" fill="#fff" font-family="Arial, sans-serif" font-size="38" font-weight="bold" text-anchor="middle">( 6 )</text>
<rect x="112" y="176" width="76" height="36" fill="#f7f6f0"/>
<text x="43" y="275" fill="#fff" font-family="Georgia, serif" font-size="72" text-anchor="middle">3</text>
<text x="257" y="275" fill="#fff" font-family="Georgia, serif" font-size="72" text-anchor="middle">1</text>

</svg>
