<svg
  width="0.5in"
  height="0.5in"
  viewBox="0 0 100 100"
  xmlns="http://www.w3.org/2000/svg"
>
  <defs>
    <linearGradient id="unionBlue" x1="0" y1="0" x2="0" y2="1">
      <stop offset="0%" stop-color="#7ea9d8" />
      <stop offset="100%" stop-color="#5f89b9" />
    </linearGradient>
  </defs>

  <rect x="1.5" y="1.5" width="97" height="97" rx="4" fill="url(#unionBlue)" stroke="#111111" stroke-width="3" />
  <rect x="7" y="7" width="86" height="86" rx="2" fill="none" stroke="#e9f2ff" stroke-width="1.5" />

  <g transform="translate(70, 10)">
    <rect x="0" y="0" width="18" height="12" fill="#ffffff" stroke="#111111" stroke-width="1" />
    <rect x="0.5" y="0.5" width="17" height="1" fill="#b22234" />
    <rect x="0.5" y="2.5" width="17" height="1" fill="#b22234" />
    <rect x="0.5" y="4.5" width="17" height="1" fill="#b22234" />
    <rect x="0.5" y="6.5" width="17" height="1" fill="#b22234" />
    <rect x="0.5" y="8.5" width="17" height="1" fill="#b22234" />
    <rect x="0.5" y="10.5" width="17" height="1" fill="#b22234" />
    <rect x="0.5" y="0.5" width="7.5" height="5.5" fill="#3c3b6e" />
    <g fill="#ffffff">
      <circle cx="1.8" cy="1.8" r="0.35" />
      <circle cx="3.8" cy="1.8" r="0.35" />
      <circle cx="5.8" cy="1.8" r="0.35" />
      <circle cx="2.8" cy="3.15" r="0.35" />
      <circle cx="4.8" cy="3.15" r="0.35" />
      <circle cx="6.8" cy="3.15" r="0.35" />
      <circle cx="1.8" cy="4.5" r="0.35" />
      <circle cx="3.8" cy="4.5" r="0.35" />
      <circle cx="5.8" cy="4.5" r="0.35" />
    </g>
  </g>

  <text
    x="10"
    y="27"
    font-family="Georgia, 'Times New Roman', serif"
    font-size="28"
    font-weight="700"
    fill="#111111"
  >1</text>

  <rect x="29" y="33" width="42" height="34" fill="none" stroke="#111111" stroke-width="3" />

  <text
    x="20"
    y="50"
    text-anchor="middle"
    dominant-baseline="central"
    font-family="Georgia, 'Times New Roman', serif"
    font-size="12"
    font-weight="700"
    fill="#ffffff"
  >C</text>

  <circle cx="50" cy="50" r="7" fill="#111111" />

  <text
    x="80"
    y="50"
    text-anchor="middle"
    dominant-baseline="middle"
    font-family="Georgia, 'Times New Roman', serif"
    font-size="12"
    font-weight="700"
    fill="#ffffff"
  >3</text>

  <rect x="74" y="74" width="14" height="14" rx="1.5" fill="#4d8f45" stroke="#111111" stroke-width="1.5" />

  <text
    x="81"
    y="81"
    text-anchor="middle"
    dominant-baseline="central"
    font-family="Georgia, 'Times New Roman', serif"
    font-size="10"
    font-weight="700"
    fill="#ffffff"
  >8</text>

</svg>
