<svg width="100" height="100" xmlns="http://www.w3.org/2000/svg">
  <g id="background">
    <rect
      id="frenchInfantry4"
      x="0"
      y="0"
      width="100%"
      height="100%"
      fill="rgb(51,133,205)"
      stroke="rgb(9,71,168)"
      stroke-width="9"
    />
  </g>

  <g id="border">
    <line x1="0" y1="1" x2="100" y2="1" stroke="black" />
    <line x1="1" y1="1" x2="1" y2="100" stroke="black" />
    <line x1="0" y1="99" x2="100" y2="99" stroke="black" />
    <line x1="99" y1="1" x2="99" y2="100" stroke="black" />
  </g>

  <g id="symbol">
    <text x="30" y="30" font-size="8">IMPERIAL</text>
    <text x="35" y="74" font-size="8">GUARD</text>
    <rect x="32" y="32" width="34" height="34" fill="white" stroke="black"/>
    <line x1="32" y1="32" x2="66" y2="66" stroke="black" />
    <line x1="32" y1="66" x2="66" y2="32" stroke="black" />
  </g>

  <g id="attributes">
    <g id="initiative">
      <rect x="7" y="7" rx="3" ry="3" width="14" height="14" fill="white" />
      <text x="10.5" y="18" font-size="12">D</text>
    </g>
    <g id="hit">
      <rect x="79" y="7" rx="3" ry="3" width="14" height="14" fill="white" />
      <text x="83" y="18" font-size="12">4</text>
    </g>
    <g id="movement">
      <rect x="79" y="79" rx="3" ry="3" width="14" height="14" fill="white" />
      <text x="83" y="90" font-size="12">4</text>
    </g>
    <g id="arrival">
      <rect x="7" y="79" rx="8" ry="4" width="14" height="14" fill="white" />
      <text x="10" y="90" font-size="12">F</text>
    </g>
  </g>

  <g id="pips" stroke="black" fill="white">
    <g id="strength4">
      <circle id="topleftouter" cx="32" cy="12" r="5"  />
      <circle id="topleftinner" cx="44" cy="12" r="5" />
      <circle id="toprightinner" cx="56" cy="12" r="5" />
      <circle id="toprightouter" cx="68" cy="12" r="5" />
    </g>

    <g id="strength3">
      <circle id="righttop" cx="88" cy="38" r="5" />
      <circle id="rightcenter" cx="88" cy="50" r="5" />
      <circle id="rightbottom" cx="88" cy="62" r="5" />
    </g>

    <g id="strength2">
      <circle id="bottomleft" cx="44" cy="88" r="5" />
      <circle id="bottomright" cx="56" cy="88" r="5" />
    </g>

    <g id="strength1">
      <circle id="leftcenter" cx="12" cy="50" r="5" />
    </g>
  </g>
</svg> 
