<svg xmlns:svg="http://www.w3.org/2000/svg" xmlns="http://www.w3.org/2000/svg" width="50" height="50" viewBox="0 0 50 50">
   <rect width="50" height="50" stroke="black" stroke-width="1" fill="rgb(9,71,168)"/>
   <text
      id="round_marker"
      x="25"
      y="15"
      text-anchor="middle"
      font-size="12"
      font-family="Arial"
      fill="white"
   >V
   </text>
   <g transform="translate(-2,45) scale(0.05) rotate(-90)">
      <path
       d="M 155.86625,297.39871 C 155.55267,297.71229 150.57791,299.79303 144.81124,302.02259 C 132.96368,306.60319 132.24341,309.20116 140.50701,317.54772 C 143.07273,320.13919 148.23247,326.67608 151.9731,332.07414 C 175.10095,365.44967 272.63762,481.32133 340.55767,556.10891 C 399.95315,621.51 512.2387,732.27994 562.22551,774.78474 C 592.99473,800.94842 650.00047,844.23262 684.44,867.58167 C 706.31878,882.41489 726.65744,898.30837 728.51518,902.02391 C 730.53625,906.066 716.78619,899.74285 714.29269,895.48349 C 713.09175,893.43202 702.1025,884.72071 689.87217,876.12505 C 677.64175,867.52933 652.95399,849.72026 635.0104,836.54931 C 617.0668,823.37835 604.47859,814.80943 607.03659,817.50727 C 609.5946,820.20509 613.5449,825.19927 615.815,828.60547 L 619.94251,834.79852 L 613.3994,832.1678 C 609.80069,830.72091 607.88951,830.6324 609.15236,831.9711 C 611.74151,834.71579 640.67684,853.53419 658.16726,863.84848 C 664.51512,867.59188 670.97642,871.50525 672.52577,872.5449 C 674.07505,873.58448 683.15625,878.5344 692.70614,883.54468 C 702.25605,888.55495 710.63578,893.7866 711.32776,895.17055 C 712.0198,896.55458 701.5192,891.64788 687.99325,884.26695 C 651.46214,864.33233 552.40204,797.63309 552.40204,793.89671 C 552.40203,792.8984 569.51072,807.75709 567.7296,805.97597 C 565.94846,804.19484 549.54564,793.34518 514.2057,764.70366 C 449.80253,712.50764 297.36442,558.51169 225.93864,473.49066 C 217.49222,463.43654 205.12966,448.96565 198.46631,441.33312 C 183.46217,424.14664 151.94627,385.64058 129.64948,357.25283 C 104.7647,325.57012 106.47558,326.76216 94.502531,332.76469 C 88.895521,335.57567 80.146661,337.87558 75.060621,337.87558 C 58.837841,337.87558 52.620601,334.76004 37.115261,318.86065 C 24.171771,305.58822 22.708091,303.27568 18.743401,289.8344 C 13.906841,273.43723 15.816011,256.09493 23.654981,245.21896 C 26.451731,241.33867 28.041351,236.01033 27.572721,232.08688 C 26.478051,222.92227 30.762941,213.14811 36.657691,211.36332 C 47.018551,208.2263 54.102741,213.27755 79.711491,242.06194 C 92.776831,256.74743 108.28262,275.36351 114.16881,283.43098 L 124.87099,298.09912 L 133.6518,295.25096 C 138.48124,293.68449 145.04851,292.86368 148.24573,293.42694 C 153.75754,294.39797 157.11638,296.14858 155.86625,297.39871 z
M714.293,895.484
C713.092,893.432,702.102,884.721,689.872,876.125
C677.642,867.529,652.954,849.72,635.01,836.549
C617.067,823.378,604.479,814.809,607.037,817.507
C609.595,820.205,613.545,825.199,615.815,828.605
L619.943,834.799
L613.399,832.168
C609.801,830.721,607.89,830.632,609.152,831.971
C611.742,834.716,640.677,853.534,658.167,863.848
C664.515,867.592,670.976,871.505,672.526,872.545
C674.075,873.584,683.156,878.534,692.706,883.545
C702.256,888.555,710.636,893.787,711.328,895.171
L714.293,895.484Z
M55.3333,259.37
C53.4883,258.145,51.0714,255.984,47.7598,252.819
C40.0864,245.483,39.6935,245.385,35.372,249.706
C22.6675,262.411,25.976,288.271,41.325,296.237
C47.5893,299.488,69.6016,298.708,71.173,295.18
C71.8569,293.645,73.0879,293.387,73.9086,294.609
C74.7294,295.83,76.0889,295.797,76.9299,294.535
C77.7708,293.274,79.0609,293.188,79.7967,294.344
C80.5325,295.5,82.3099,295.902,83.7465,295.236
C85.4478,294.448,84.8445,292.511,82.0163,289.683
C79.6282,287.295,76.2027,282.693,74.4042,279.457
C72.6057,276.221,69.2696,272.686,66.9906,271.602
L55.3333,259.37Z"
       style="fill:#fcfcfc"/>
    <path
       d="M 155.86625,297.39871 C 155.55267,297.71229 150.57791,299.79303 144.81124,302.02259 C 132.96368,306.60319 132.24341,309.20116 140.50701,317.54772 C 143.07273,320.13919 148.23247,326.67608 151.9731,332.07414 C 175.10095,365.44967 272.63762,481.32133 340.55767,556.10891 C 399.95315,621.51 512.2387,732.27994 562.22551,774.78474 C 592.99473,800.94842 650.00047,844.23262 684.44,867.58167 C 706.31878,882.41489 726.65744,898.30837 728.51518,902.02391 C 730.53625,906.066 716.78619,899.74285 714.29269,895.48349 C 713.09175,893.43202 702.1025,884.72071 689.87217,876.12505 C 677.64175,867.52933 652.95399,849.72026 635.0104,836.54931 C 617.0668,823.37835 604.47859,814.80943 607.03659,817.50727 C 609.5946,820.20509 613.5449,825.19927 615.815,828.60547 L 619.94251,834.79852 L 613.3994,832.1678 C 609.80069,830.72091 607.88951,830.6324 609.15236,831.9711 C 611.74151,834.71579 640.67684,853.53419 658.16726,863.84848 C 664.51512,867.59188 670.97642,871.50525 672.52577,872.5449 C 674.07505,873.58448 683.15625,878.5344 692.70614,883.54468 C 702.25605,888.55495 710.63578,893.7866 711.32776,895.17055 C 712.0198,896.55458 701.5192,891.64788 687.99325,884.26695 C 651.46214,864.33233 552.40204,797.63309 552.40204,793.89671 C 552.40203,792.8984 569.51072,807.75709 567.7296,805.97597 C 565.94846,804.19484 549.54564,793.34518 514.2057,764.70366 C 449.80253,712.50764 297.36442,558.51169 225.93864,473.49066 C 217.49222,463.43654 205.12966,448.96565 198.46631,441.33312 C 183.46217,424.14664 151.94627,385.64058 129.64948,357.25283 C 104.7647,325.57012 106.47558,326.76216 94.502531,332.76469 C 88.895521,335.57567 80.146661,337.87558 75.060621,337.87558 C 58.837841,337.87558 52.620601,334.76004 37.115261,318.86065 C 24.171771,305.58822 22.708091,303.27568 18.743401,289.8344 C 13.906841,273.43723 15.816011,256.09493 23.654981,245.21896 C 26.451731,241.33867 28.041351,236.01033 27.572721,232.08688 C 26.478051,222.92227 30.762941,213.14811 36.657691,211.36332 C 47.018551,208.2263 54.102741,213.27755 79.711491,242.06194 C 92.776831,256.74743 108.28262,275.36351 114.16881,283.43098 L 124.87099,298.09912 L 133.6518,295.25096 C 138.48124,293.68449 145.04851,292.86368 148.24573,293.42694 C 153.75754,294.39797 157.11638,296.14858 155.86625,297.39871 z M 130.51379,301.96107 C 119.30537,306.22023 115.73025,308.44071 115.61787,311.21283 C 115.50662,313.95739 115.27635,314.17241 114.68772,312.08143 C 114.25745,310.55301 113.09509,309.53278 112.10468,309.81426 C 111.11425,310.09574 111.23761,309.73621 112.37876,309.01535 C 115.0714,307.31439 91.813521,300.39632 82.513921,300.13202 C 78.578581,300.02018 69.718451,300.75273 62.824711,301.75992 C 55.931001,302.7671 47.120911,302.6327 43.246771,301.46123 L 36.202901,299.33129 L 41.732011,302.89291 C 46.995551,306.28347 64.837071,307.00094 78.072011,304.35428 C 86.612851,302.64632 105.31888,307.17685 107.8949,311.57723 C 111.19347,317.21185 100.64985,321.13619 84.526611,320.27488 C 71.750251,319.59238 71.489041,319.68031 79.672781,321.90843 L 88.322011,324.2633 L 82.589321,328.0492 C 75.790331,332.53933 62.884941,330.69801 53.360311,323.87885 C 43.088781,316.52498 39.853391,315.89391 44.933941,322.23527 C 47.436481,325.35888 51.119011,328.55671 53.117331,329.34158 C 55.115651,330.12642 57.775501,331.43869 59.028121,332.25773 C 63.343051,335.07909 77.381071,335.48235 84.650091,332.99379 C 88.656961,331.62201 98.731901,325.8721 107.03886,320.21622 C 124.96792,308.00901 135.4277,302.05433 144.651,298.80396 C 148.38184,297.4892 150.04553,296.40073 148.3481,296.38517 C 146.65066,296.36961 138.62522,298.87877 130.51379,301.96107 z M 40.747081,224.13222 C 35.235731,227.37323 30.448001,231.2854 30.107701,232.82595 C 29.767381,234.36649 32.689531,233.32321 36.601361,230.50757 C 40.513201,227.69194 46.828761,223.77975 50.635941,221.81384 C 55.709131,219.19423 56.651211,218.23947 54.162871,218.23947 C 52.295521,218.23947 46.258401,220.8912 40.747081,224.13222 z M 54.724331,224.54224 C 52.674321,224.38944 35.251221,235.23469 35.193891,236.69926 C 35.109401,238.85705 48.250141,236.57328 48.777701,234.33849 C 49.029861,233.27032 50.719141,233.05684 52.531651,233.86406 C 54.344181,234.6713 56.066691,234.31698 56.359491,233.0767 C 56.652271,231.83642 55.683471,230.53641 54.206591,230.18775 C 52.603921,229.80943 52.672841,229.28204 54.377541,228.87961 C 58.135561,227.99246 58.174521,228.06793 57.700181,235.31334 C 57.475731,238.74175 56.988081,240.409 56.616531,239.01839 C 56.244961,237.62778 54.309681,236.12289 52.315851,235.67421 C 49.751571,235.09716 50.439741,236.62116 54.667471,240.88201 L 60.644241,246.90559 L 61.142191,238.9942 L 61.640151,231.08283 L 62.120941,238.44398 C 62.385381,242.49263 63.049211,246.25263 63.596121,246.79954 C 65.278391,248.4818 74.041821,245.06889 74.649451,242.49485 C 75.155941,240.34939 57.872431,224.77692 54.724331,224.54224 z M 90.861531,263.49404 C 90.061841,265.28968 90.063371,266.75884 90.864931,266.75882 C 91.666501,266.75882 92.602641,265.57148 92.945221,264.1203 C 93.876981,260.17325 92.521891,259.76596 90.861531,263.49404 z M 81.936791,262.84675 C 73.833911,274.14788 73.336651,279.5801 81.359791,269.15012 C 88.140251,260.3356 89.607791,257.52149 88.172531,256.08623 C 87.727771,255.64147 84.921701,258.68371 81.936791,262.84675 z M 74.298341,264.00386 C 72.047591,269.91001 72.125181,270.54691 74.668951,267.04618 C 76.438461,264.61103 79.439051,260.04321 81.336931,256.89549 C 84.241901,252.0775 84.183281,251.59633 80.966321,253.85316 C 78.864601,255.3276 75.864011,259.89542 74.298341,264.00386 z M 71.013021,255.46515 C 67.730791,259.90547 65.556221,264.04934 66.180681,264.67381 C 66.805131,265.29826 70.091761,261.66528 73.484311,256.6005 C 81.084151,245.25465 79.200301,244.38916 71.013021,255.46515 z M 35.429021,220.42533 L 28.704991,225.66914 L 37.886751,221.09017 C 48.872081,215.61174 49.413441,215.18153 45.322031,215.18153 C 43.579101,215.18153 39.127251,217.54125 35.429021,220.42533 z M 99.856311,285.35318 C 92.967791,293.85898 91.382841,298.69295 95.826461,297.64396 C 97.305671,297.29477 97.746691,296.23982 96.806491,295.29962 C 95.866301,294.35943 96.282561,293.31032 97.731511,292.96825 C 101.11349,292.16987 109.30489,280.27653 107.62782,278.59946 C 106.9283,277.89994 103.43111,280.93911 99.856311,285.35318 z M 94.847451,280.34432 C 91.438161,284.92389 88.648721,290.04688 88.648721,291.72875 C 88.648721,294.66077 101.09152,279.8383 102.25509,275.52019 C 103.52744,270.79836 100.47335,272.7873 94.847451,280.34432 z M 90.982851,273.60179 C 87.779841,276.8048 84.813151,281.75055 84.390231,284.59235 C 83.687741,289.31247 83.981311,289.19386 87.785391,283.22058 C 90.075691,279.62433 92.354331,276.05465 92.849061,275.28799 C 93.343781,274.5213 94.780611,272.86197 96.042011,271.60057 C 97.303411,270.33917 97.991451,268.96309 97.570981,268.54262 C 97.150511,268.12215 94.185861,270.39878 90.982851,273.60179 z M 110.36105,296.62632 C 107.89672,300.3578 107.32229,302.76553 108.99027,302.3718 C 111.77987,301.71325 118.23275,290.20305 115.81236,290.20305 C 115.14722,290.20305 112.69414,293.09351 110.36105,296.62632 z M 104.88673,292.98 L 100.32175,300.34384 L 105.95415,295.01863 C 109.05198,292.08974 111.58656,288.776 111.58654,287.65476 C 111.58654,283.89297 109.48388,285.56424 104.88673,292.98 z M 116.32429,300.29218 C 113.65661,302.99643 113.7023,303.57691 116.53264,302.94001 C 118.52646,302.49133 120.36742,301.23613 120.62367,300.15066 C 121.44328,296.67867 119.83678,296.73157 116.32429,300.29218 z M 123.4347,317.80149 C 118.97658,320.46611 114.33785,323.6374 113.12645,324.8488 C 110.48788,327.48737 114.57389,335.4728 117.38872,333.17873 C 118.46029,332.30541 121.51412,329.63976 124.175,327.25503 C 126.83589,324.87031 131.04839,321.93888 133.53611,320.74075 C 137.24455,318.95468 137.47216,318.05748 134.79982,315.75953 C 132.41495,313.7088 129.36549,314.2567 123.4347,317.80149 z M 118.97658,329.70147 C 117.61592,330.02267 115.81462,329.59746 114.97368,328.75652 C 114.13275,327.91559 114.55798,326.96473 115.91863,326.64352 C 117.2793,326.32232 119.0806,326.74754 119.92153,327.58848 C 120.76246,328.42941 120.33724,329.38026 118.97658,329.70147 z M 80.418641,278.05934 C 79.567301,281.90957 79.837061,281.88017 82.407341,277.84253 C 84.042851,275.27335 86.309921,272.03614 87.445321,270.64874 C 88.580721,269.26133 87.685821,269.35891 85.456641,270.86556 C 83.227421,272.3722 80.960341,275.60942 80.418641,278.05934 z M 62.178761,255.8928 C 59.604491,262.7763 57.766601,262.38445 47.759841,252.81864 C 40.086441,245.48339 39.693481,245.38465 35.371961,249.70617 C 22.667461,262.41067 25.975961,288.27106 41.324951,296.23683 C 47.589261,299.48787 69.601601,298.70849 71.173051,295.18002 C 71.856861,293.64461 73.087861,293.38744 73.908601,294.60851 C 74.729371,295.82954 76.088931,295.79654 76.929871,294.53513 C 77.770811,293.27373 79.060871,293.18772 79.796691,294.34401 C 80.532511,295.50029 82.309941,295.90165 83.746531,295.23591 C 85.447801,294.44753 84.844531,292.51147 82.016351,289.68329 C 79.628151,287.2951 76.202681,282.69348 74.404181,279.45748 C 72.605681,276.22147 69.269571,272.68629 66.990611,271.60151 C 61.751571,269.10775 62.043661,259.72977 67.531291,254.24214 C 70.510141,251.26329 70.582471,250.34787 67.839011,250.34787 C 65.137891,250.34786 63.740431,251.71686 62.178761,255.8928 z M 135.06931,323.10974 C 129.40672,325.63162 122.83857,332.69963 129.65731,341.19081 C 133.21539,345.62161 147.0089,363.13378 160.30953,380.10678 C 173.61017,397.07977 242.07994,478.67276 273.00945,513.26688 C 279.83661,520.90296 294.51507,537.32313 305.62823,549.75612 C 335.11941,582.74981 455.47733,703.33634 487.32593,731.79894 C 516.91233,758.23985 563.32506,795.44551 563.86573,793.15524 C 564.04911,792.37837 567.10313,794.5557 570.6524,797.99376 C 578.08217,805.19072 604.93456,824.65316 604.93456,822.84125 C 604.93456,820.49262 584.52274,798.35664 583.39601,799.48337 C 582.76836,800.11103 576.22202,794.61672 568.84862,787.27377 C 561.4752,779.93084 531.41395,751.84897 502.0458,724.8696 C 457.63489,684.07096 437.90004,664.43927 384.77308,608.20975 C 349.6412,571.02621 318.08119,537.22671 314.63972,533.09978 C 311.19824,528.97285 301.20996,517.63198 292.44351,507.89788 C 257.83353,469.46751 146.83625,334.83384 146.77429,331.20902 C 146.71593,327.79469 138.0359,321.78852 135.06931,323.10974 z M 57.187371,253.38704 C 56.560361,254.86235 57.767441,254.34935 59.869781,252.24701 C 61.972111,250.14468 62.485121,248.93759 61.009801,249.56461 C 59.534471,250.19163 57.814391,251.91172 57.187371,253.38704 z M 51.071481,250.32909 C 50.444461,251.80441 51.651561,251.29141 53.753891,249.18908 C 55.856231,247.08674 56.369221,245.87965 54.893911,246.50666 C 53.418591,247.13368 51.698501,248.85377 51.071481,250.32909 z M 42.528021,241.02115 C 42.206811,242.3818 42.247431,243.79849 42.618261,244.16933 C 42.989101,244.54016 43.980541,244.15554 44.821481,243.3146 C 45.662411,242.47367 45.621801,241.05698 44.731241,240.16642 C 43.840671,239.27586 42.849221,239.66048 42.528021,241.02115 z M 25.802101,247.99428 C 24.715051,249.85049 26.233781,248.96109 29.177041,246.01782 C 32.120311,243.07456 33.009721,241.55583 31.153501,242.64288 C 29.297301,243.72995 26.889171,246.13808 25.802101,247.99428 z M 119.2938,335.74246 C 118.10763,336.02248 122.41385,343.08085 128.86319,351.42773 C 142.58868,369.19153 139.87591,359.91026 133.96239,352.02894 C 128.04885,344.14764 122.81451,337.14446 122.33051,336.46632 C 121.84651,335.78818 120.48,335.46243 119.2938,335.74246 z M 87.726091,307.48365 C 84.024531,306.99873 81.043921,307.76411 81.089041,309.18797 C 81.134101,310.60943 82.338151,311.21957 83.764731,310.54383 C 85.191321,309.86807 87.029831,309.98649 87.850321,310.80698 C 90.034821,312.99148 85.172791,313.68817 79.573831,311.99295 C 76.067831,310.93142 75.479551,310.34769 77.447531,309.88312 C 82.682771,308.64723 78.241761,307.38919 70.406721,307.88861 C 54.310681,308.91457 59.746511,312.32007 82.423541,315.41704 C 89.267121,316.35164 96.369161,316.71401 98.205881,316.22226 C 103.33884,314.84804 95.771031,308.53759 87.726091,307.48365 z M 302.64813,552.73623 C 302.64813,552.73623 177.05765,407.81102 163.19078,389.45729 L 302.64813,552.73623 z M 19.017021,262.61479 C 15.795291,273.37214 22.778991,300.24283 29.584251,303.27365 C 31.345491,304.05802 31.644371,304.91969 30.267921,305.24461 C 28.831391,305.58374 30.067581,308.0672 33.263951,311.26357 C 36.256851,314.25647 39.473871,315.93693 40.412891,314.99792 C 41.367821,314.04298 40.419071,312.29476 38.259921,311.03079 C 36.136751,309.78789 35.409081,308.53266 36.642861,308.24141 C 37.876631,307.95016 35.936411,304.73199 32.331281,301.08992 C 23.808471,292.47978 18.528861,278.1279 20.079051,267.78401 C 21.439341,258.70747 20.929881,256.22779 19.017021,262.61479 z M 54.122411,319.2529 C 55.341421,321.69089 72.636231,327.47665 76.194201,326.63672 C 77.609621,326.30259 72.998671,324.0569 65.947661,321.6463 C 58.896661,319.23568 53.575311,318.15867 54.122411,319.2529 z M 22.838601,271.41336 C 22.521111,271.73085 22.521111,274.13897 22.838601,276.76476 C 23.361801,281.09164 23.469961,281.09164 23.993161,276.76475 C 24.542641,272.22047 24.097011,270.15496 22.838601,271.41336 z M 45.840781,310.86974 C 45.840781,312.25312 64.438031,318.49426 65.473801,317.45849 C 65.866231,317.06605 61.609351,315.16078 56.014071,313.22458 C 50.418771,311.28837 45.840791,310.22869 45.840781,310.86974 z M 631.26957,843.09325 C 630.61704,843.04504 627.55725,841.40313 624.47017,839.44468 C 620.37101,836.84413 619.89433,836.08376 622.70269,836.62524 C 626.16456,837.29274 634.127,843.30438 631.26957,843.09325 z "
       style="fill:#000000"/>
    <path
       d="M 155.86625,816.47006 C 155.55267,816.15648 150.57791,814.07574 144.81124,811.84618 C 132.96368,807.26558 132.24341,804.66761 140.50701,796.32105 C 143.07273,793.72958 148.23247,787.19269 151.9731,781.79463 C 175.10095,748.4191 272.63762,632.54744 340.55767,557.75986 C 399.95315,492.35877 512.2387,381.58883 562.22551,339.08403 C 592.99473,312.92035 650.00047,269.63615 684.44,246.2871 C 706.31878,231.45388 726.65744,215.5604 728.51518,211.84486 C 730.53625,207.80277 716.78619,214.12592 714.29269,218.38528 C 713.09175,220.43675 702.1025,229.14806 689.87217,237.74372 C 677.64175,246.33944 652.95399,264.14851 635.0104,277.31946 C 617.0668,290.49042 604.47859,299.05934 607.03659,296.3615 C 609.5946,293.66368 613.5449,288.6695 615.815,285.2633 L 619.94251,279.07025 L 613.3994,281.70097 C 609.80069,283.14786 607.88951,283.23637 609.15236,281.89767 C 611.74151,279.15298 640.67684,260.33458 658.16726,250.02029 C 664.51512,246.27689 670.97642,242.36352 672.52577,241.32387 C 674.07505,240.28429 683.15625,235.33437 692.70614,230.32409 C 702.25605,225.31382 710.63578,220.08217 711.32776,218.69822 C 712.0198,217.31419 701.5192,222.22089 687.99325,229.60182 C 651.46214,249.53644 552.40204,316.23568 552.40204,319.97206 C 552.40203,320.97037 569.51072,306.11168 567.7296,307.8928 C 565.94846,309.67393 549.54564,320.52359 514.2057,349.16511 C 449.80253,401.36113 297.36442,555.35708 225.93864,640.37811 C 217.49222,650.43223 205.12966,664.90312 198.46631,672.53565 C 183.46217,689.72213 151.94627,728.22819 129.64948,756.61594 C 104.7647,788.29865 106.47558,787.10661 94.502531,781.10408 C 88.895521,778.2931 80.146661,775.99319 75.060621,775.99319 C 58.837841,775.99319 52.620601,779.10873 37.115261,795.00812 C 24.171771,808.28055 22.708091,810.59309 18.743401,824.03437 C 13.906841,840.43154 15.816011,857.77384 23.654981,868.64981 C 26.451731,872.5301 28.041351,877.85844 27.572721,881.78189 C 26.478051,890.9465 30.762941,900.72066 36.657691,902.50545 C 47.018551,905.64247 54.102741,900.59122 79.711491,871.80683 C 92.776831,857.12134 108.28262,838.50526 114.16881,830.43779 L 124.87099,815.76965 L 133.6518,818.61781 C 138.48124,820.18428 145.04851,821.00509 148.24573,820.44183 C 153.75754,819.4708 157.11638,817.72019 155.86625,816.47006 z
M714.293,218.385
C713.092,220.437,702.102,229.148,689.872,237.744
C677.642,246.339,652.954,264.148,635.01,277.319
C617.067,290.49,604.479,299.059,607.037,296.362
C609.595,293.664,613.545,288.669,615.815,285.263
L619.943,279.07
L613.399,281.701
C609.801,283.148,607.89,283.236,609.152,281.898
C611.742,279.153,640.677,260.335,658.167,250.02
C664.515,246.277,670.976,242.364,672.526,241.324
C674.075,240.284,683.156,235.334,692.706,230.324
C702.256,225.314,710.636,220.082,711.328,218.698
L714.293,218.385Z
M54.8333,854.843
C53.0565,856.111,50.7803,858.163,47.7598,861.05
C40.0864,868.385,39.6935,868.484,35.372,864.163
C22.6675,851.458,25.976,825.598,41.325,817.632
C47.5893,814.381,69.6016,815.16,71.173,818.689
C71.8569,820.224,73.0879,820.481,73.9086,819.26
C74.7294,818.039,76.0889,818.072,76.9299,819.334
C77.7708,820.595,79.0609,820.681,79.7967,819.525
C80.5325,818.368,82.3099,817.967,83.7465,818.633
C85.4478,819.421,84.8445,821.357,82.0163,824.185
C79.6282,826.574,76.2027,831.175,74.4042,834.411
C72.6057,837.647,69.2696,841.182,66.9906,842.267
L54.8333,854.843Z"
       style="fill:#fcfcfc"/>
    <path
       d="M 155.86625,816.47006 C 155.55267,816.15648 150.57791,814.07574 144.81124,811.84618 C 132.96368,807.26558 132.24341,804.66761 140.50701,796.32105 C 143.07273,793.72958 148.23247,787.19269 151.9731,781.79463 C 175.10095,748.4191 272.63762,632.54744 340.55767,557.75986 C 399.95315,492.35877 512.2387,381.58883 562.22551,339.08403 C 592.99473,312.92035 650.00047,269.63615 684.44,246.2871 C 706.31878,231.45388 726.65744,215.5604 728.51518,211.84486 C 730.53625,207.80277 716.78619,214.12592 714.29269,218.38528 C 713.09175,220.43675 702.1025,229.14806 689.87217,237.74372 C 677.64175,246.33944 652.95399,264.14851 635.0104,277.31946 C 617.0668,290.49042 604.47859,299.05934 607.03659,296.3615 C 609.5946,293.66368 613.5449,288.6695 615.815,285.2633 L 619.94251,279.07025 L 613.3994,281.70097 C 609.80069,283.14786 607.88951,283.23637 609.15236,281.89767 C 611.74151,279.15298 640.67684,260.33458 658.16726,250.02029 C 664.51512,246.27689 670.97642,242.36352 672.52577,241.32387 C 674.07505,240.28429 683.15625,235.33437 692.70614,230.32409 C 702.25605,225.31382 710.63578,220.08217 711.32776,218.69822 C 712.0198,217.31419 701.5192,222.22089 687.99325,229.60182 C 651.46214,249.53644 552.40204,316.23568 552.40204,319.97206 C 552.40203,320.97037 569.51072,306.11168 567.7296,307.8928 C 565.94846,309.67393 549.54564,320.52359 514.2057,349.16511 C 449.80253,401.36113 297.36442,555.35708 225.93864,640.37811 C 217.49222,650.43223 205.12966,664.90312 198.46631,672.53565 C 183.46217,689.72213 151.94627,728.22819 129.64948,756.61594 C 104.7647,788.29865 106.47558,787.10661 94.502531,781.10408 C 88.895521,778.2931 80.146661,775.99319 75.060621,775.99319 C 58.837841,775.99319 52.620601,779.10873 37.115261,795.00812 C 24.171771,808.28055 22.708091,810.59309 18.743401,824.03437 C 13.906841,840.43154 15.816011,857.77384 23.654981,868.64981 C 26.451731,872.5301 28.041351,877.85844 27.572721,881.78189 C 26.478051,890.9465 30.762941,900.72066 36.657691,902.50545 C 47.018551,905.64247 54.102741,900.59122 79.711491,871.80683 C 92.776831,857.12134 108.28262,838.50526 114.16881,830.43779 L 124.87099,815.76965 L 133.6518,818.61781 C 138.48124,820.18428 145.04851,821.00509 148.24573,820.44183 C 153.75754,819.4708 157.11638,817.72019 155.86625,816.47006 z M 130.51379,811.9077 C 119.30537,807.64854 115.73025,805.42806 115.61787,802.65594 C 115.50662,799.91138 115.27635,799.69636 114.68772,801.78734 C 114.25745,803.31576 113.09509,804.33599 112.10468,804.05451 C 111.11425,803.77303 111.23761,804.13256 112.37876,804.85342 C 115.0714,806.55438 91.813521,813.47245 82.513921,813.73675 C 78.578581,813.84859 69.718451,813.11604 62.824711,812.10885 C 55.931001,811.10167 47.120911,811.23607 43.246771,812.40754 L 36.202901,814.53748 L 41.732011,810.97586 C 46.995551,807.5853 64.837071,806.86783 78.072011,809.51449 C 86.612851,811.22245 105.31888,806.69192 107.8949,802.29154 C 111.19347,796.65692 100.64985,792.73258 84.526611,793.59389 C 71.750251,794.27639 71.489041,794.18846 79.672781,791.96034 L 88.322011,789.60547 L 82.589321,785.81957 C 75.790331,781.32944 62.884941,783.17076 53.360311,789.98992 C 43.088781,797.34379 39.853391,797.97486 44.933941,791.6335 C 47.436481,788.50989 51.119011,785.31206 53.117331,784.52719 C 55.115651,783.74235 57.775501,782.43008 59.028121,781.61104 C 63.343051,778.78968 77.381071,778.38642 84.650091,780.87498 C 88.656961,782.24676 98.731901,787.99667 107.03886,793.65255 C 124.96792,805.85976 135.4277,811.81444 144.651,815.06481 C 148.38184,816.37957 150.04553,817.46804 148.3481,817.4836 C 146.65066,817.49916 138.62522,814.99 130.51379,811.9077 z M 40.747081,889.73655 C 35.235731,886.49554 30.448001,882.58337 30.107701,881.04282 C 29.767381,879.50228 32.689531,880.54556 36.601361,883.3612 C 40.513201,886.17683 46.828761,890.08902 50.635941,892.05493 C 55.709131,894.67454 56.651211,895.6293 54.162871,895.6293 C 52.295521,895.6293 46.258401,892.97757 40.747081,889.73655 z M 54.724331,889.32653 C 52.674321,889.47933 35.251221,878.63408 35.193891,877.16951 C 35.109401,875.01172 48.250141,877.29549 48.777701,879.53028 C 49.029861,880.59845 50.719141,880.81193 52.531651,880.00471 C 54.344181,879.19747 56.066691,879.55179 56.359491,880.79207 C 56.652271,882.03235 55.683471,883.33236 54.206591,883.68102 C 52.603921,884.05934 52.672841,884.58673 54.377541,884.98916 C 58.135561,885.87631 58.174521,885.80084 57.700181,878.55543 C 57.475731,875.12702 56.988081,873.45977 56.616531,874.85038 C 56.244961,876.24099 54.309681,877.74588 52.315851,878.19456 C 49.751571,878.77161 50.439741,877.24761 54.667471,872.98676 L 60.644241,866.96318 L 61.142191,874.87457 L 61.640151,882.78594 L 62.120941,875.42479 C 62.385381,871.37614 63.049211,867.61614 63.596121,867.06923 C 65.278391,865.38697 74.041821,868.79988 74.649451,871.37392 C 75.155941,873.51938 57.872431,889.09185 54.724331,889.32653 z M 90.861531,850.37473 C 90.061841,848.57909 90.063371,847.10993 90.864931,847.10995 C 91.666501,847.10995 92.602641,848.29729 92.945221,849.74847 C 93.876981,853.69552 92.521891,854.10281 90.861531,850.37473 z M 81.936791,851.02202 C 73.833911,839.72089 73.336651,834.28867 81.359791,844.71865 C 88.140251,853.53317 89.607791,856.34728 88.172531,857.78254 C 87.727771,858.2273 84.921701,855.18506 81.936791,851.02202 z M 74.298341,849.86491 C 72.047591,843.95876 72.125181,843.32186 74.668951,846.82259 C 76.438461,849.25774 79.439051,853.82556 81.336931,856.97328 C 84.241901,861.79127 84.183281,862.27244 80.966321,860.01561 C 78.864601,858.54117 75.864011,853.97335 74.298341,849.86491 z M 71.013021,858.40362 C 67.730791,853.9633 65.556221,849.81943 66.180681,849.19496 C 66.805131,848.57051 70.091761,852.20349 73.484311,857.26827 C 81.084151,868.61412 79.200301,869.47961 71.013021,858.40362 z M 35.429021,893.44344 L 28.704991,888.19963 L 37.886751,892.7786 C 48.872081,898.25703 49.413441,898.68724 45.322031,898.68724 C 43.579101,898.68724 39.127251,896.32752 35.429021,893.44344 z M 99.856311,828.51559 C 92.967791,820.00979 91.382841,815.17582 95.826461,816.22481 C 97.305671,816.574 97.746691,817.62895 96.806491,818.56915 C 95.866301,819.50934 96.282561,820.55845 97.731511,820.90052 C 101.11349,821.6989 109.30489,833.59224 107.62782,835.26931 C 106.9283,835.96883 103.43111,832.92966 99.856311,828.51559 z M 94.847451,833.52445 C 91.438161,828.94488 88.648721,823.82189 88.648721,822.14002 C 88.648721,819.208 101.09152,834.03047 102.25509,838.34858 C 103.52744,843.07041 100.47335,841.08147 94.847451,833.52445 z M 90.982851,840.26698 C 87.779841,837.06397 84.813151,832.11822 84.390231,829.27642 C 83.687741,824.5563 83.981311,824.67491 87.785391,830.64819 C 90.075691,834.24444 92.354331,837.81412 92.849061,838.58078 C 93.343781,839.34747 94.780611,841.0068 96.042011,842.2682 C 97.303411,843.5296 97.991451,844.90568 97.570981,845.32615 C 97.150511,845.74662 94.185861,843.46999 90.982851,840.26698 z M 110.36105,817.24245 C 107.89672,813.51097 107.32229,811.10324 108.99027,811.49697 C 111.77987,812.15552 118.23275,823.66572 115.81236,823.66572 C 115.14722,823.66572 112.69414,820.77526 110.36105,817.24245 z M 104.88673,820.88877 L 100.32175,813.52493 L 105.95415,818.85014 C 109.05198,821.77903 111.58656,825.09277 111.58654,826.21401 C 111.58654,829.9758 109.48388,828.30453 104.88673,820.88877 z M 116.32429,813.57659 C 113.65661,810.87234 113.7023,810.29186 116.53264,810.92876 C 118.52646,811.37744 120.36742,812.63264 120.62367,813.71811 C 121.44328,817.1901 119.83678,817.1372 116.32429,813.57659 z M 123.4347,796.06728 C 118.97658,793.40266 114.33785,790.23137 113.12645,789.01997 C 110.48788,786.3814 114.57389,778.39597 117.38872,780.69004 C 118.46029,781.56336 121.51412,784.22901 124.175,786.61374 C 126.83589,788.99846 131.04839,791.92989 133.53611,793.12802 C 137.24455,794.91409 137.47216,795.81129 134.79982,798.10924 C 132.41495,800.15997 129.36549,799.61207 123.4347,796.06728 z M 118.97658,784.1673 C 117.61592,783.8461 115.81462,784.27131 114.97368,785.11225 C 114.13275,785.95318 114.55798,786.90404 115.91863,787.22525 C 117.2793,787.54645 119.0806,787.12123 119.92153,786.28029 C 120.76246,785.43936 120.33724,784.48851 118.97658,784.1673 z M 80.418641,835.80943 C 79.567301,831.9592 79.837061,831.9886 82.407341,836.02624 C 84.042851,838.59542 86.309921,841.83263 87.445321,843.22003 C 88.580721,844.60744 87.685821,844.50986 85.456641,843.00321 C 83.227421,841.49657 80.960341,838.25935 80.418641,835.80943 z M 62.178761,857.97597 C 59.604491,851.09247 57.766601,851.48432 47.759841,861.05013 C 40.086441,868.38538 39.693481,868.48412 35.371961,864.1626 C 22.667461,851.4581 25.975961,825.59771 41.324951,817.63194 C 47.589261,814.3809 69.601601,815.16028 71.173051,818.68875 C 71.856861,820.22416 73.087861,820.48133 73.908601,819.26026 C 74.729371,818.03923 76.088931,818.07223 76.929871,819.33364 C 77.770811,820.59504 79.060871,820.68105 79.796691,819.52476 C 80.532511,818.36848 82.309941,817.96712 83.746531,818.63286 C 85.447801,819.42124 84.844531,821.3573 82.016351,824.18548 C 79.628151,826.57367 76.202681,831.17529 74.404181,834.41129 C 72.605681,837.6473 69.269571,841.18248 66.990611,842.26726 C 61.751571,844.76102 62.043661,854.139 67.531291,859.62663 C 70.510141,862.60548 70.582471,863.5209 67.839011,863.5209 C 65.137891,863.52091 63.740431,862.15191 62.178761,857.97597 z M 135.06931,790.75903 C 129.40672,788.23715 122.83857,781.16914 129.65731,772.67796 C 133.21539,768.24716 147.0089,750.73499 160.30953,733.76199 C 173.61017,716.789 242.07994,635.19601 273.00945,600.60189 C 279.83661,592.96581 294.51507,576.54564 305.62823,564.11265 C 335.11941,531.11896 455.47733,410.53243 487.32593,382.06983 C 516.91233,355.62892 563.32506,318.42326 563.86573,320.71353 C 564.04911,321.4904 567.10313,319.31307 570.6524,315.87501 C 578.08217,308.67805 604.93456,289.21561 604.93456,291.02752 C 604.93456,293.37615 584.52274,315.51213 583.39601,314.3854 C 582.76836,313.75774 576.22202,319.25205 568.84862,326.595 C 561.4752,333.93793 531.41395,362.0198 502.0458,388.99917 C 457.63489,429.79781 437.90004,449.4295 384.77308,505.65902 C 349.6412,542.84256 318.08119,576.64206 314.63972,580.76899 C 311.19824,584.89592 301.20996,596.23679 292.44351,605.97089 C 257.83353,644.40126 146.83625,779.03493 146.77429,782.65975 C 146.71593,786.07408 138.0359,792.08025 135.06931,790.75903 z M 57.187371,860.48173 C 56.560361,859.00642 57.767441,859.51942 59.869781,861.62176 C 61.972111,863.72409 62.485121,864.93118 61.009801,864.30416 C 59.534471,863.67714 57.814391,861.95705 57.187371,860.48173 z M 51.071481,863.53968 C 50.444461,862.06436 51.651561,862.57736 53.753891,864.67969 C 55.856231,866.78203 56.369221,867.98912 54.893911,867.36211 C 53.418591,866.73509 51.698501,865.015 51.071481,863.53968 z M 42.528021,872.84762 C 42.206811,871.48697 42.247431,870.07028 42.618261,869.69944 C 42.989101,869.32861 43.980541,869.71323 44.821481,870.55417 C 45.662411,871.3951 45.621801,872.81179 44.731241,873.70235 C 43.840671,874.59291 42.849221,874.20829 42.528021,872.84762 z M 25.802101,865.87449 C 24.715051,864.01828 26.233781,864.90768 29.177041,867.85095 C 32.120311,870.79421 33.009721,872.31294 31.153501,871.22589 C 29.297301,870.13882 26.889171,867.73069 25.802101,865.87449 z M 119.2938,778.12631 C 118.10763,777.84629 122.41385,770.78792 128.86319,762.44104 C 142.58868,744.67724 139.87591,753.95851 133.96239,761.83983 C 128.04885,769.72113 122.81451,776.72431 122.33051,777.40245 C 121.84651,778.08059 120.48,778.40634 119.2938,778.12631 z M 87.726091,806.38512 C 84.024531,806.87004 81.043921,806.10466 81.089041,804.6808 C 81.134101,803.25934 82.338151,802.6492 83.764731,803.32494 C 85.191321,804.0007 87.029831,803.88228 87.850321,803.06179 C 90.034821,800.87729 85.172791,800.1806 79.573831,801.87582 C 76.067831,802.93735 75.479551,803.52108 77.447531,803.98565 C 82.682771,805.22154 78.241761,806.47958 70.406721,805.98016 C 54.310681,804.9542 59.746511,801.5487 82.423541,798.45173 C 89.267121,797.51713 96.369161,797.15476 98.205881,797.64651 C 103.33884,799.02073 95.771031,805.33118 87.726091,806.38512 z M 302.64813,561.13254 C 302.64813,561.13254 177.05765,706.05775 163.19078,724.41148 L 302.64813,561.13254 z M 19.017021,851.25398 C 15.795291,840.49663 22.778991,813.62594 29.584251,810.59512 C 31.345491,809.81075 31.644371,808.94908 30.267921,808.62416 C 28.831391,808.28503 30.067581,805.80157 33.263951,802.6052 C 36.256851,799.6123 39.473871,797.93184 40.412891,798.87085 C 41.367821,799.82579 40.419071,801.57401 38.259921,802.83798 C 36.136751,804.08088 35.409081,805.33611 36.642861,805.62736 C 37.876631,805.91861 35.936411,809.13678 32.331281,812.77885 C 23.808471,821.38899 18.528861,835.74087 20.079051,846.08476 C 21.439341,855.1613 20.929881,857.64098 19.017021,851.25398 z M 54.122411,794.61587 C 55.341421,792.17788 72.636231,786.39212 76.194201,787.23205 C 77.609621,787.56618 72.998671,789.81187 65.947661,792.22247 C 58.896661,794.63309 53.575311,795.7101 54.122411,794.61587 z M 22.838601,842.45541 C 22.521111,842.13792 22.521111,839.7298 22.838601,837.10401 C 23.361801,832.77713 23.469961,832.77713 23.993161,837.10402 C 24.542641,841.6483 24.097011,843.71381 22.838601,842.45541 z M 45.840781,802.99903 C 45.840781,801.61565 64.438031,795.37451 65.473801,796.41028 C 65.866231,796.80272 61.609351,798.70799 56.014071,800.64419 C 50.418771,802.5804 45.840791,803.64008 45.840781,802.99903 z M 631.26957,270.77552 C 630.61704,270.82373 627.55725,272.46564 624.47017,274.42409 C 620.37101,277.02464 619.89433,277.78501 622.70269,277.24353 C 626.16456,276.57603 634.127,270.56439 631.26957,270.77552 z "
       style="fill:#000000"/>
  </g>
</svg>
