<svg xmlns="http://www.w3.org/2000/svg" width="100" height="100" viewBox="0 0 100 100">
  <title>Parthian Cataphract Cavalry 6</title>
  <desc>
    Parthian cataphract cavalry unit for S&amp;T's Trajan.
  </desc>
  <defs>
    <!-- A marker to be used as an arrowhead -->
    <marker
      id="arrow"
      viewBox="0 0 10 10"
      refX="5"
      refY="5"
      markerWidth="3"
      markerHeight="3"
      orient="auto-start-reverse"
      fill="black"
    >
    <path d="M 0 0 L 10 5 L 0 10 z"/>
    </marker>
  </defs>

  <!-- Background rectangle -->
  <rect width="100" height="100" fill="lightgreen" stroke="black" stroke-width="2"/>

  <!-- Unit Name -->
  <text x="50" y="20" font-family="Cinzel" font-size="18" text-anchor="middle" fill="black">VI</text>

  <!-- Unit Stats -->
  <text x="50" y="92" font-family="Cinzel" font-size="22" text-anchor="middle" fill="black">3-R-6</text>

  <!-- Unit Symbol -->
  <g id="unit-symbol">
    <g transform="translate(20,16) scale(0.1,0.1)">
      <path
        id="horse_path"
        d="
          M533.7,86.3c4,1.2,5.2,18.7-2.1,33.3
          c-4.1,8.2-9.9,13.7-14.9,17.3c-2.5,1.8-5.5,8.7-4.4,11.7c0.7,2.2,1.7,4.6,2.9,7.1c6.3,13.4,14,13.6,17.8,23.1
          c6.5,15.9-6.4,27.1,52,86.7c0,0,12.9,15.5-3,37.8c0,0-3.9,22.8-20.6,12c0,0-13.7,11.2-39.5-10.7c0,0-7.9-29-57.5-31.3
          c0,0-30.5,4.3-40.8-21.9c-9.6,1.3-17.1,3.9-22.7,6.4c-27.8,12.5-32.8,34.5-71.3,84.7c-13.4,17.5-15.3,18-20.1,26.9
          c-13.5,25.2-14.8,50.6-13.8,67.5c0,0-9,90-49.1,109.8C224.7,557.5,32.9,297.9,67.9,266c8.6-5.9,21.8-14.1,39-21.5
          c26.5-11.3,42.8-13.2,58.9-16.3c49.2-12.5,69.8-39.3,90.7-56.7c32.1-26.6,151.1-73,199.6-56.7c0,0,21.7-14.4,24.3-18.7
          c2.6-4.3,17.4-23.9,29.5-18.7c0.3,0.8-1.9,14.5-7.8,24.9c-3.6,6.4-5.1,13.2-5.1,13.2c1.4-0.3,3.4-0.8,5.8-1.7
          C523.5,106.3,529,84.9,533.7,86.3z
        "
        stroke="white"
        stroke-width="5"
      />
    </g>
    <path id="eye"
      d="M68 32 Q 69 31, 70 34Z"
      stroke="white"
      stroke-width=".5"
      fill="white"
    />
  </g>

  <g id="spear">
    <path
      d="
        M 16 19
        L 13 30
        Q 16 33, 15 37
        L 16 37
        L 17 37
        Q 16 33, 19 30
        Z
      "
      fill="grey"
    />

    <line x1="16" y1="72" x2="16" y2="37" stroke="saddlebrown" stroke-width="1.5"/>
  </g>

  <!-- Number -->
  <text x="65" y="62" font-family="Cinzel" font-size="16" text-anchor="middle" fill="black">2</text>
</svg>