<svg viewBox="0 0 100 100" width="100" height="100" xmlns="http://www.w3.org/2000/svg" xmlns:xlink="http://www.w3.org/1999/xlink">
  <title>Entrenchment +1</title>
  <desc>Entrenchment Level 1 marker for Birth of a Legend</desc>

  <defs id="common">
    <rect
      id="background"
      width="100"
      height="100"
      fill="rgb(135,165,225)"
    />

    <g id="border" stroke="black" stroke-width="2">
      <line x1="0" y1="1" x2="100" y2="1" />
      <line x1="1" y1="1" x2="1" y2="100" />
      <line x1="0" y1="99" x2="100" y2="99" />
      <line x1="99" y1="1" x2="99" y2="100" />
    </g>

    <clipPath id="block">
      <use xlink:href="#background"/>
    </clipPath>
  </defs>

  <g id="unit" font-family="EB Garamond">
    <use xlink:href="#background" clip-path="url(#block)"/>
    <use xlink:href="#border" clip-path="url(#block)"/>


    <polyline
      points="5,20 15,20 15,35 25,35 25,20 35,20 35,35 45,35 45,20 55,20 55,35 65,35 65,20 75,20 75,35 85,35 85,20 95,20"
      stroke="black"
      stroke-width="3"
      fill="none"
    />

    <text x="7" y="60" font-size="15">Entrenchment</text>
  </g>

  <text x="35" y="85" font-size="24">+2</text>
</svg>