<svg width="400" height="400" xmlns="http://www.w3.org/2000/svg">
  <!-- Define the hexagon size -->
  <defs>
    <path id="hexagon" 
      d="M 35,0 L 105,0 L 140,60 L 105,120 L 35,120 L 0,60 Z" 
      fill="rgb(230,220,200)" 
      stroke="black" 
      stroke-width="2"
    />

    <g id="unit">
      <!-- Background rectangle -->
      <rect width="100" height="100" fill="red" stroke="black" stroke-width="2"/>

      <!-- Unit size -->
      <text x="50" y="20" font-family="Arial" font-size="14" text-anchor="middle" fill="black">XX</text>

      <!-- Division number -->
      <text x="-44" y="16" font-size="14" text-anchor="middle" dominant-baseline="central" transform="rotate(-90)">138</text>
    
      <!-- Unit symbol -->
      <g>
        <rect x="25" y="24" width="50" height="36" fill="none" stroke="black" stroke-width="2"/>
        <line x1="25" y1="24" x2="75" y2="60" stroke="black" stroke-width="2"/>
        <line x1="25" y1="60" x2="75" y2="24" stroke="black" stroke-width="2"/>
      </g>

      <!-- Unit designation -->
      <text x="50" y="84" font-family="Arial" font-size="24" text-anchor="middle" fill="black">3-5-6</text>
    </g>

    <marker fill="black" id="arrowhead" markerWidth="10" markerHeight="7" refX="0" refY="3.5" orient="auto">
      <polygon points="0 0, 8 3.5, 0 7" />
    </marker>

    <line
      id="arrow"
      x1="0"
      y1="55"
      x2="0"
      y2="0"
      stroke="black" 
      stroke-width="1"
      marker-end="url(#arrowhead)"
    />
  </defs>

  <rect id="background" x="0" y="0" width="400" height="400" fill="#f0f0f0"/>

  <!-- Center hexagon -->
  <use href="#hexagon" x="130" y="140"/>
  <use href="#unit" x="200" y="200" transform="scale(0.8)"/>

  <!-- Lower right hexagon -->
  <use href="#hexagon" x="235" y="200"/>
  
  <!-- Top right hexagon -->
  <use href="#hexagon" x="235" y="80"/>
  
  <!-- Bottom hexagon -->
  <use href="#hexagon" x="130" y="260"/>
  
  <!-- Top left hexagon -->
  <use href="#hexagon" x="25" y="80"/>
  
  <!-- Top hexagon -->
  <use href="#hexagon" x="130" y="20"/>
  
  <!-- Bottom left hexagon -->
  <use href="#hexagon" x="25" y="200"/>

  <!-- Arrows -->
  <use href="#arrow" x="200" y="100"/>
</svg>